<svg width="3256" height="1520" xmlns="http://www.w3.org/2000/svg" xmlns:xlink="http://www.w3.org/1999/xlink" xml:space="preserve" overflow="hidden"><g transform="translate(-570 -313)"><text font-family="Yu Gothic,Yu Gothic_MSFontService,sans-serif" font-weight="400" font-size="83" transform="matrix(1 0 0 1 787.625 866)">Li</text><text font-family="Yu Gothic,Yu Gothic_MSFontService,sans-serif" font-weight="400" font-size="55" transform="matrix(1 0 0 1 858.667 825)">+</text><text font-family="Yu Gothic,Yu Gothic_MSFontService,sans-serif" font-weight="400" font-size="83" transform="matrix(1 0 0 1 898.771 866)">, K</text><text font-family="Yu Gothic,Yu Gothic_MSFontService,sans-serif" font-weight="400" font-size="55" transform="matrix(1 0 0 1 1000.75 825)">+</text><text font-family="Yu Gothic,Yu Gothic_MSFontService,sans-serif" font-weight="400" font-size="83" transform="matrix(1 0 0 1 1040.85 866)">, Ca</text><text font-family="Yu Gothic,Yu Gothic_MSFontService,sans-serif" font-weight="400" font-size="55" transform="matrix(1 0 0 1 1187.52 825)">2+</text><text font-family="Yu Gothic,Yu Gothic_MSFontService,sans-serif" font-weight="400" font-size="83" transform="matrix(1 0 0 1 1257.99 866)">, Na</text><text font-family="Yu Gothic,Yu Gothic_MSFontService,sans-serif" font-weight="400" font-size="55" transform="matrix(1 0 0 1 1410.39 825)">+</text><text font-family="Yu Gothic,Yu Gothic_MSFontService,sans-serif" font-weight="400" font-size="83" transform="matrix(1 0 0 1 787.625 1155)">Mg</text><text font-family="Yu Gothic,Yu Gothic_MSFontService,sans-serif" font-weight="400" font-size="55" transform="matrix(1 0 0 1 908.511 1114)">2+</text><text font-family="Yu Gothic,Yu Gothic_MSFontService,sans-serif" font-weight="400" font-size="83" transform="matrix(1 0 0 1 978.979 1155)">, Al</text><text font-family="Yu Gothic,Yu Gothic_MSFontService,sans-serif" font-weight="400" font-size="55" transform="matrix(1 0 0 1 1098.72 1114)">3+</text><text font-family="Yu Gothic,Yu Gothic_MSFontService,sans-serif" font-weight="400" font-size="83" transform="matrix(1 0 0 1 1169.19 1155)">, Zn</text><text font-family="Yu Gothic,Yu Gothic_MSFontService,sans-serif" font-weight="400" font-size="55" transform="matrix(1 0 0 1 1312.99 1114)">2+</text><text font-family="Yu Gothic,Yu Gothic_MSFontService,sans-serif" font-weight="400" font-size="83" transform="matrix(1 0 0 1 1383.46 1155)">, Fe</text><text font-family="Yu Gothic,Yu Gothic_MSFontService,sans-serif" font-weight="400" font-size="55" transform="matrix(1 0 0 1 1524.4 1114)">2+</text><text font-family="Yu Gothic,Yu Gothic_MSFontService,sans-serif" font-weight="400" font-size="73" transform="matrix(1 0 0 1 1594.86 1155)">,</text><text font-family="Yu Gothic,Yu Gothic_MSFontService,sans-serif" font-weight="400" font-size="83" transform="matrix(1 0 0 1 787.625 1304)">Ni</text><text font-family="Yu Gothic,Yu Gothic_MSFontService,sans-serif" font-weight="400" font-size="55" transform="matrix(1 0 0 1 871.271 1263)">2+</text><text font-family="Yu Gothic,Yu Gothic_MSFontService,sans-serif" font-weight="400" font-size="83" transform="matrix(1 0 0 1 941.74 1304)">, Sn</text><text font-family="Yu Gothic,Yu Gothic_MSFontService,sans-serif" font-weight="400" font-size="55" transform="matrix(1 0 0 1 1086.11 1263)">2+</text><text font-family="Yu Gothic,Yu Gothic_MSFontService,sans-serif" font-weight="400" font-size="83" transform="matrix(1 0 0 1 1156.58 1304)">, Pb</text><text font-family="Yu Gothic,Yu Gothic_MSFontService,sans-serif" font-weight="400" font-size="55" transform="matrix(1 0 0 1 1303.82 1263)">2+</text><text font-family="Yu Gothic,Yu Gothic_MSFontService,sans-serif" font-weight="400" font-size="83" transform="matrix(1 0 0 1 1374.29 1304)">, Cu</text><text font-family="Yu Gothic,Yu Gothic_MSFontService,sans-serif" font-weight="400" font-size="55" transform="matrix(1 0 0 1 1523.25 1263)">2+</text><text font-family="Yu Gothic,Yu Gothic_MSFontService,sans-serif" font-weight="400" font-size="83" transform="matrix(1 0 0 1 787.625 1587)">Hg</text><text font-family="Yu Gothic,Yu Gothic_MSFontService,sans-serif" font-weight="400" font-size="55" transform="matrix(1 0 0 1 894.188 1546)">2+</text><text font-family="Yu Gothic,Yu Gothic_MSFontService,sans-serif" font-weight="400" font-size="83" transform="matrix(1 0 0 1 964.656 1587)">, Ag</text><text font-family="Yu Gothic,Yu Gothic_MSFontService,sans-serif" font-weight="400" font-size="55" transform="matrix(1 0 0 1 1107.89 1546)">+</text><text font-family="Yu Gothic,Yu Gothic_MSFontService,sans-serif" font-weight="400" font-size="83" transform="matrix(1 0 0 1 1869.83 814)">アルカリ金属元素とアルカリ土類金属元素の</text><text font-family="Yu Gothic,Yu Gothic_MSFontService,sans-serif" font-weight="400" font-size="83" transform="matrix(1 0 0 1 1869.83 913)">水酸化物は沈殿しにくい</text><text font-family="Yu Gothic,Yu Gothic_MSFontService,sans-serif" font-weight="400" font-size="83" transform="matrix(1 0 0 1 1869.83 1217)">水酸化物</text><text font-family="Yu Gothic,Yu Gothic_MSFontService,sans-serif" font-weight="400" font-size="83" transform="matrix(1 0 0 1 2223.32 1217)">M(OH)</text><text font-family="Yu Gothic,Yu Gothic_MSFontService,sans-serif" font-weight="400" font-size="55" transform="matrix(1 0 0 1 2484.57 1237)">n</text><text font-family="Yu Gothic,Yu Gothic_MSFontService,sans-serif" font-weight="400" font-size="83" transform="matrix(1 0 0 1 2540.15 1217)">の沈殿が生成する</text><text font-family="Yu Gothic,Yu Gothic_MSFontService,sans-serif" font-weight="400" font-size="83" transform="matrix(1 0 0 1 1869.83 1578)">室温で水酸化物が分解し酸化物の沈殿が生じる</text><text font-family="Yu Gothic,Yu Gothic_MSFontService,sans-serif" font-weight="400" font-size="110" transform="matrix(1 0 0 1 1466.09 458)">水酸化物イオン</text><text font-family="Yu Gothic,Yu Gothic_MSFontService,sans-serif" font-weight="400" font-size="110" transform="matrix(1 0 0 1 2267.6 458)">OH</text><text font-family="Yu Gothic,Yu Gothic_MSFontService,sans-serif" font-weight="400" font-size="73" transform="matrix(1 0 0 1 2430.31 403)">-</text><text font-family="Yu Gothic,Yu Gothic_MSFontService,sans-serif" font-weight="400" font-size="110" transform="matrix(1 0 0 1 2493.91 458)">との沈殿</text><text font-family="Yu Gothic,Yu Gothic_MSFontService,sans-serif" font-weight="400" font-size="83" transform="matrix(1 0 0 1 1783.75 600)">ポイント：イオン化傾向</text><path d="M576 1000 3824.03 1000" stroke="#000000" stroke-width="2.29167" stroke-miterlimit="8" fill="none" fill-rule="evenodd"/><path d="M576 1401 3824.03 1401" stroke="#000000" stroke-width="2.29167" stroke-miterlimit="8" fill="none" fill-rule="evenodd"/><path d="M576 676 3824.03 676.001" stroke="#000000" stroke-width="2.29167" stroke-miterlimit="8" fill="none" fill-rule="evenodd"/><text font-family="Yu Gothic,Yu Gothic_MSFontService,sans-serif" font-weight="400" font-size="64" transform="matrix(1 0 0 1 608.984 1776)">※Mg(OH)</text><text font-family="Yu Gothic,Yu Gothic_MSFontService,sans-serif" font-weight="400" font-size="43" transform="matrix(1 0 0 1 910.911 1791)">2 </text><text font-family="Yu Gothic,Yu Gothic_MSFontService,sans-serif" font-weight="400" font-size="64" transform="matrix(1 0 0 1 947.005 1776)">は沈殿せず，</text><text font-family="Yu Gothic,Yu Gothic_MSFontService,sans-serif" font-weight="400" font-size="64" transform="matrix(1 0 0 1 1332.01 1776)">Ca(OH)</text><text font-family="Yu Gothic,Yu Gothic_MSFontService,sans-serif" font-weight="400" font-size="43" transform="matrix(1 0 0 1 1555.44 1791)">2</text><text font-family="Yu Gothic,Yu Gothic_MSFontService,sans-serif" font-weight="400" font-size="64" transform="matrix(1 0 0 1 1597.84 1776)">は沈殿する場合もある（濃度による）</text></g></svg>