<svg width="3286" height="1474" xmlns="http://www.w3.org/2000/svg" xmlns:xlink="http://www.w3.org/1999/xlink" xml:space="preserve" overflow="hidden"><g transform="translate(-576 -313)"><text font-family="Yu Gothic,Yu Gothic_MSFontService,sans-serif" font-weight="400" font-size="83" transform="matrix(1 0 0 1 787.625 805)">Li</text><text font-family="Yu Gothic,Yu Gothic_MSFontService,sans-serif" font-weight="400" font-size="55" transform="matrix(1 0 0 1 858.667 764)">+</text><text font-family="Yu Gothic,Yu Gothic_MSFontService,sans-serif" font-weight="400" font-size="83" transform="matrix(1 0 0 1 898.771 805)">, K</text><text font-family="Yu Gothic,Yu Gothic_MSFontService,sans-serif" font-weight="400" font-size="55" transform="matrix(1 0 0 1 1000.75 764)">+</text><text font-family="Yu Gothic,Yu Gothic_MSFontService,sans-serif" font-weight="400" font-size="83" transform="matrix(1 0 0 1 1040.85 805)">, Ca</text><text font-family="Yu Gothic,Yu Gothic_MSFontService,sans-serif" font-weight="400" font-size="55" transform="matrix(1 0 0 1 1187.52 764)">2+</text><text font-family="Yu Gothic,Yu Gothic_MSFontService,sans-serif" font-weight="400" font-size="83" transform="matrix(1 0 0 1 1257.99 805)">, </text><text font-family="Yu Gothic,Yu Gothic_MSFontService,sans-serif" font-weight="400" font-size="83" transform="matrix(1 0 0 1 787.625 954)">Na</text><text font-family="Yu Gothic,Yu Gothic_MSFontService,sans-serif" font-weight="400" font-size="55" transform="matrix(1 0 0 1 895.334 913)">+</text><text font-family="Yu Gothic,Yu Gothic_MSFontService,sans-serif" font-weight="400" font-size="83" transform="matrix(1 0 0 1 935.438 954)">, Mg</text><text font-family="Yu Gothic,Yu Gothic_MSFontService,sans-serif" font-weight="400" font-size="55" transform="matrix(1 0 0 1 1101.01 913)">+</text><text font-family="Yu Gothic,Yu Gothic_MSFontService,sans-serif" font-weight="400" font-size="83" transform="matrix(1 0 0 1 1141.11 954)">, Al</text><text font-family="Yu Gothic,Yu Gothic_MSFontService,sans-serif" font-weight="400" font-size="55" transform="matrix(1 0 0 1 1276.32 913)">3+</text><text font-family="Yu Gothic,Yu Gothic_MSFontService,sans-serif" font-weight="400" font-size="83" transform="matrix(1 0 0 1 787.625 1163)">Mn</text><text font-family="Yu Gothic,Yu Gothic_MSFontService,sans-serif" font-weight="400" font-size="55" transform="matrix(1 0 0 1 911.375 1122)">2+</text><text font-family="Yu Gothic,Yu Gothic_MSFontService,sans-serif" font-weight="400" font-size="83" transform="matrix(1 0 0 1 981.844 1163)">, Zn</text><text font-family="Yu Gothic,Yu Gothic_MSFontService,sans-serif" font-weight="400" font-size="55" transform="matrix(1 0 0 1 1125.65 1122)">2+</text><text font-family="Yu Gothic,Yu Gothic_MSFontService,sans-serif" font-weight="400" font-size="83" transform="matrix(1 0 0 1 1196.11 1163)">, Fe</text><text font-family="Yu Gothic,Yu Gothic_MSFontService,sans-serif" font-weight="400" font-size="55" transform="matrix(1 0 0 1 1337.05 1122)">2+</text><text font-family="Yu Gothic,Yu Gothic_MSFontService,sans-serif" font-weight="400" font-size="83" transform="matrix(1 0 0 1 1407.52 1163)">, </text><text font-family="Yu Gothic,Yu Gothic_MSFontService,sans-serif" font-weight="400" font-size="83" transform="matrix(1 0 0 1 787.625 1312)">Co</text><text font-family="Yu Gothic,Yu Gothic_MSFontService,sans-serif" font-weight="400" font-size="49" transform="matrix(1 0 0 1 890.177 1275)">2+</text><text font-family="Yu Gothic,Yu Gothic_MSFontService,sans-serif" font-weight="400" font-size="73" transform="matrix(1 0 0 1 952.625 1312)">, </text><text font-family="Yu Gothic,Yu Gothic_MSFontService,sans-serif" font-weight="400" font-size="83" transform="matrix(1 0 0 1 992.729 1312)">Ni</text><text font-family="Yu Gothic,Yu Gothic_MSFontService,sans-serif" font-weight="400" font-size="55" transform="matrix(1 0 0 1 1076.38 1271)">2+</text><text font-family="Yu Gothic,Yu Gothic_MSFontService,sans-serif" font-weight="400" font-size="83" transform="matrix(1 0 0 1 787.625 1565)">Cd</text><text font-family="Yu Gothic,Yu Gothic_MSFontService,sans-serif" font-weight="400" font-size="55" transform="matrix(1 0 0 1 891.323 1524)">2+</text><text font-family="Yu Gothic,Yu Gothic_MSFontService,sans-serif" font-weight="400" font-size="83" transform="matrix(1 0 0 1 961.792 1565)">, Sn</text><text font-family="Yu Gothic,Yu Gothic_MSFontService,sans-serif" font-weight="400" font-size="55" transform="matrix(1 0 0 1 1106.17 1524)">2+</text><text font-family="Yu Gothic,Yu Gothic_MSFontService,sans-serif" font-weight="400" font-size="83" transform="matrix(1 0 0 1 1176.64 1565)">, Pb</text><text font-family="Yu Gothic,Yu Gothic_MSFontService,sans-serif" font-weight="400" font-size="55" transform="matrix(1 0 0 1 1323.88 1524)">2+</text><text font-family="Yu Gothic,Yu Gothic_MSFontService,sans-serif" font-weight="400" font-size="83" transform="matrix(1 0 0 1 1394.34 1565)">,</text><text font-family="Yu Gothic,Yu Gothic_MSFontService,sans-serif" font-weight="400" font-size="83" transform="matrix(1 0 0 1 787.625 1714)">Cu</text><text font-family="Yu Gothic,Yu Gothic_MSFontService,sans-serif" font-weight="400" font-size="55" transform="matrix(1 0 0 1 891.896 1673)">2+</text><text font-family="Yu Gothic,Yu Gothic_MSFontService,sans-serif" font-weight="400" font-size="83" transform="matrix(1 0 0 1 962.365 1714)">, Hg</text><text font-family="Yu Gothic,Yu Gothic_MSFontService,sans-serif" font-weight="400" font-size="55" transform="matrix(1 0 0 1 1113.61 1673)">2+</text><text font-family="Yu Gothic,Yu Gothic_MSFontService,sans-serif" font-weight="400" font-size="83" transform="matrix(1 0 0 1 1184.08 1714)">, Ag</text><text font-family="Yu Gothic,Yu Gothic_MSFontService,sans-serif" font-weight="400" font-size="55" transform="matrix(1 0 0 1 1327.31 1673)">+</text><text font-family="Yu Gothic,Yu Gothic_MSFontService,sans-serif" font-weight="400" font-size="83" transform="matrix(1 0 0 1 1869.83 813)">アルカリ金属元素とアルカリ土類金属元素は</text><text font-family="Yu Gothic,Yu Gothic_MSFontService,sans-serif" font-weight="400" font-size="83" transform="matrix(1 0 0 1 1869.83 912)">沈殿しにくい</text><text font-family="Yu Gothic,Yu Gothic_MSFontService,sans-serif" font-weight="400" font-size="83" transform="matrix(1 0 0 1 1869.83 1217)">水酸化物</text><text font-family="Yu Gothic,Yu Gothic_MSFontService,sans-serif" font-weight="400" font-size="83" transform="matrix(1 0 0 1 2223.32 1217)">M(OH)</text><text font-family="Yu Gothic,Yu Gothic_MSFontService,sans-serif" font-weight="400" font-size="55" transform="matrix(1 0 0 1 2484.57 1237)">n</text><text font-family="Yu Gothic,Yu Gothic_MSFontService,sans-serif" font-weight="400" font-size="83" transform="matrix(1 0 0 1 2540.15 1217)">の沈殿が生成する</text><text font-family="Yu Gothic,Yu Gothic_MSFontService,sans-serif" font-weight="400" font-size="83" transform="matrix(1 0 0 1 1869.83 1623)">室温で水酸化物が分解し酸化物の沈殿が生じる</text><text font-family="Yu Gothic,Yu Gothic_MSFontService,sans-serif" font-weight="400" font-size="110" transform="matrix(1 0 0 1 1547.45 458)">硫化物イオン</text><text font-family="Yu Gothic,Yu Gothic_MSFontService,sans-serif" font-weight="400" font-size="110" transform="matrix(1 0 0 1 2238.96 458)">S</text><text font-family="Yu Gothic,Yu Gothic_MSFontService,sans-serif" font-weight="400" font-size="73" transform="matrix(1 0 0 1 2308.28 403)">2</text><text font-family="Yu Gothic,Yu Gothic_MSFontService,sans-serif" font-weight="400" font-size="73" transform="matrix(1 0 0 1 2348.96 403)">-</text><text font-family="Yu Gothic,Yu Gothic_MSFontService,sans-serif" font-weight="400" font-size="110" transform="matrix(1 0 0 1 2412.55 458)">との沈殿</text><text font-family="Yu Gothic,Yu Gothic_MSFontService,sans-serif" font-weight="400" font-size="83" transform="matrix(1 0 0 1 1783.75 600)">ポイント：イオン化傾向</text><path d="M576 1000 3824.03 1000" stroke="#000000" stroke-width="2.29167" stroke-miterlimit="8" fill="none" fill-rule="evenodd"/><path d="M576 1401 3824.03 1401" stroke="#000000" stroke-width="2.29167" stroke-miterlimit="8" fill="none" fill-rule="evenodd"/><path d="M576 676 3824.03 676.001" stroke="#000000" stroke-width="2.29167" stroke-miterlimit="8" fill="none" fill-rule="evenodd"/><text font-family="Yu Gothic,Yu Gothic_MSFontService,sans-serif" font-weight="400" font-size="64" transform="matrix(1 0 0 1 2940.65 639)">※Mn</text><text font-family="Yu Gothic,Yu Gothic_MSFontService,sans-serif" font-weight="400" font-size="43" transform="matrix(1 0 0 1 3101.06 607)">2+</text><text font-family="Yu Gothic,Yu Gothic_MSFontService,sans-serif" font-weight="400" font-size="64" transform="matrix(1 0 0 1 3156.06 639)">, Co</text><text font-family="Yu Gothic,Yu Gothic_MSFontService,sans-serif" font-weight="400" font-size="43" transform="matrix(1 0 0 1 3270.65 607)">2+</text><text font-family="Yu Gothic,Yu Gothic_MSFontService,sans-serif" font-weight="400" font-size="64" transform="matrix(1 0 0 1 3325.65 639)">, Cd</text><text font-family="Yu Gothic,Yu Gothic_MSFontService,sans-serif" font-weight="400" font-size="43" transform="matrix(1 0 0 1 3441.38 607)">2+</text><text font-family="Yu Gothic,Yu Gothic_MSFontService,sans-serif" font-weight="400" font-size="64" transform="matrix(1 0 0 1 3514.71 639)">は暗記</text></g></svg>